<?xml version="1.0" standalone="no"?>
<svg xmlns="http://www.w3.org/2000/svg" viewBox="0 0 203.328 24.36" width="203.328" height="24.36">
<g fill="#ff3a3a" color="#ff3a3a" transform="translate(0, 0) scale(0.58)">
<svg width="50.0" height="42.0" x="0.0" y="0.0" viewBox="0 0 50 42">
<path fill="currentColor" fill-rule="evenodd" d="
M39.414 17.264v20.7H10.35V17.153c0-.048-.011-.093-.015-.14L24.882 4.829 39.439 17.02c-.01.081-.025.16-.025.244m9.711 
3.21L26.03 1.132a1.787 1.787 0 0 0-2.294 0L.639 20.475a1.786 1.786 0 0 0 2.293 2.738l3.845-3.221V39.75c0 
.986.8 1.785 1.786 1.785H41.2c.986 0 1.786-.799 1.786-1.785V19.992l3.845 3.22a1.784 1.784 0 0 0 2.516-.223 
1.785 1.785 0 0 0-.22-2.514m-25.81 2.38a1.785 1.785 0 1 0 3.13 0 1.371 1.371 0 0 1 2.573.656c0 1.665-2.415 
3.67-4.14 4.774-1.723-1.098-4.134-3.098-4.134-4.773a1.371 1.371 0 0 1 2.571-.657m-6.142.657c0 4.623 6.164 8.046 
6.867 8.42a1.784 1.784 0 0 0 1.681 0c.703-.374 6.868-3.797 6.868-8.42a4.947 4.947 0 0 0-4.942-4.94 4.932 4.932 
0 0 0-2.766.848 4.941 4.941 0 0 0-2.767-.848 4.947 4.947 0 0 0-4.941 4.94"></path>
</svg></g>
<line x1="41" y1="1" x2="41" y2="23.36" stroke="#ff3a3a" stroke-linecap="round"></line>
<path fill="#ff3a3a" fill-rule="nonzero" d="M6.38 17.88Q3.34 17.88 0.67 16.73L0.67 16.73Q0.38 16.61 0.19 16.33Q0 16.06 
0 15.74L0 15.74Q0 15.34 0.28 15.04Q0.55 14.74 0.98 14.74L0.98 14.74Q1.22 14.74 1.44 14.83L1.44 14.83Q3.65 15.82 6.17 
15.82L6.17 15.82Q10.37 15.82 10.37 13.06L10.37 13.06Q10.37 12.34 9.83 11.86Q9.29 11.38 8.50 11.10Q7.70 10.82 6.24 
10.44L6.24 10.44Q4.30 9.94 3.10 9.47Q1.90 9 1.03 8.06Q0.17 7.13 0.17 5.57L0.17 5.57Q0.17 4.20 0.89 3.08Q1.61 1.97 
3.01 1.31Q4.42 0.65 6.38 0.65L6.38 0.65Q9.02 0.65 11.16 1.44L11.16 1.44Q11.83 1.68 11.83 2.40L11.83 2.40Q11.83 
2.78 11.57 3.10Q11.30 3.41 10.87 3.41L10.87 3.41Q10.73 3.41 10.49 3.31L10.49 3.31Q8.62 2.66 6.62 2.66L6.62 
2.66Q4.73 2.66 3.54 3.38Q2.35 4.10 2.35 5.40L2.35 5.40Q2.35 6.26 2.92 6.80Q3.48 7.34 4.33 7.64Q5.18 7.94 
6.65 8.28L6.65 8.28Q8.54 8.74 9.71 9.19Q10.87 9.65 11.70 10.61Q12.53 11.57 12.53 13.20L12.53 13.20Q12.53 
14.54 11.76 15.61Q10.99 16.68 9.60 17.28Q8.21 17.88 6.38 17.88L6.38 17.88ZM16.34 17.76Q15.89 17.76 15.58 
17.45Q15.26 17.14 15.26 16.68L15.26 16.68L15.26 6.38Q15.26 5.93 15.58 5.60Q15.89 5.28 16.34 5.28L16.34 
5.28Q16.80 5.28 17.12 5.60Q17.45 5.93 17.45 6.38L17.45 6.38L17.45 7.37Q18.12 6.41 19.07 5.78Q20.02 5.16 
21.53 5.16L21.53 5.16Q22.87 5.16 23.83 5.88Q24.79 6.60 25.20 7.63L25.20 7.63Q26.69 5.16 29.62 5.16L29.62
5.16Q30.96 5.16 31.86 5.83Q32.76 6.50 33.19 7.56Q33.62 8.62 33.62 9.77L33.62 9.77L33.62 16.68Q33.62 17.14 
33.30 17.45Q32.98 17.76 32.52 17.76L32.52 17.76Q32.06 17.76 31.75 17.45Q31.44 17.14 31.44 16.68L31.44 
16.68L31.44 10.20Q31.44 8.64 30.89 7.91Q30.34 7.18 28.99 7.18L28.99 7.18Q27.77 7.18 26.96 7.81Q26.16 8.45 
25.54 9.48L25.54 9.48L25.54 16.68Q25.54 17.14 25.21 17.45Q24.89 17.76 24.43 17.76L24.43 17.76Q23.98 17.76 
23.66 17.45Q23.35 17.14 23.35 16.68L23.35 16.68L23.35 10.20Q23.35 8.64 22.80 7.91Q22.25 7.18 20.90 7.18L20.90 
7.18Q19.68 7.18 18.88 7.81Q18.07 8.45 17.45 9.48L17.45 9.48L17.45 16.68Q17.45 17.14 17.12 17.45Q16.80 17.76 16.34 
17.76L16.34 17.76ZM40.42 17.88Q39.36 17.88 38.46 17.45Q37.56 17.02 37.03 16.19Q36.50 15.36 36.50 14.28L36.50 
14.28Q36.50 12.50 37.91 11.45Q39.31 10.39 42.02 10.39L42.02 10.39L44.93 10.39L44.93 10.20Q44.93 8.62 44.15 
7.92Q43.37 7.22 41.71 7.22L41.71 7.22Q40.80 7.22 40.09 7.37Q39.38 7.51 38.52 7.80L38.52 7.80Q38.33 7.85 38.21 
7.85L38.21 7.85Q37.85 7.85 37.58 7.58Q37.32 7.32 37.32 6.94L37.32 6.94Q37.32 6.29 37.94 6.02L37.94 6.02Q39.98 
5.16 42.10 5.16L42.10 5.16Q43.75 5.16 44.89 5.83Q46.03 6.50 46.57 7.57Q47.11 8.64 47.11 9.89L47.11 9.89L47.11 
16.68Q47.11 17.14 46.79 17.45Q46.46 17.76 46.01 17.76L46.01 17.76Q45.55 17.76 45.24 17.45Q44.93 17.14 44.93 16.68L44.93 16.68L44.93 16.06Q43.15 
17.88 40.42 17.88L40.42 17.88ZM41.23 15.96Q42.29 15.96 43.27 15.44Q44.26 14.93 44.93 14.16L44.93 14.16L44.93 12.14L42.31 12.14Q38.69 12.14 38.69 
14.04L38.69 14.04Q38.69 14.90 39.28 15.43Q39.86 15.96 41.23 15.96L41.23 15.96ZM51.86 17.76Q51.41 17.76 51.10 17.45Q50.78 17.14 50.78 16.68L50.78 
16.68L50.78 1.10Q50.78 0.65 51.10 0.32Q51.41 0 51.86 0L51.86 0Q52.34 0 52.66 0.31Q52.97 0.62 52.97 1.10L52.97 1.10L52.97 16.68Q52.97 17.14 52.64 
17.45Q52.32 17.76 51.86 17.76L51.86 17.76ZM57.84 17.76Q57.38 17.76 57.07 17.45Q56.76 17.14 56.76 16.68L56.76 16.68L56.76 1.10Q56.76 0.65 57.07 
0.32Q57.38 0 57.84 0L57.84 0Q58.32 0 58.63 0.31Q58.94 0.62 58.94 1.10L58.94 1.10L58.94 16.68Q58.94 17.14 58.62 17.45Q58.30 17.76 57.84 17.76L57.84
17.76ZM69.36 17.76Q68.88 17.76 68.58 17.45Q68.28 17.14 68.28 16.68L68.28 16.68Q68.28 16.49 68.40 16.20L68.40 16.20L74.52 1.75Q74.71 1.32 75.06 1.04Q75.41 
 0.77 75.91 0.77L75.91 0.77L76.15 0.77Q76.66 0.77 77.00 1.04Q77.35 1.32 77.54 1.75L77.54 1.75L83.66 16.20Q83.78 16.49 83.78 16.68L83.78 16.68Q83.78 17.14 
 83.48 17.45Q83.18 17.76 82.70 17.76L82.70 17.76Q82.37 17.76 82.09 17.58Q81.82 17.40 81.67 17.09L81.67 17.09L80.11 13.34L71.95 13.34L70.39 17.09Q70.25 17.40 
 69.97 17.58Q69.70 17.76 69.36 17.76L69.36 17.76ZM76.03 3.55L72.79 11.35L79.27 11.35L76.03 3.55ZM92.26 17.88Q90.53 17.88 89.06 17.11Q87.60 16.34 86.72 14.90Q85.85 
 13.46 85.85 11.52L85.85 11.52Q85.85 9.58 86.72 8.14Q87.60 6.70 89.06 5.93Q90.53 5.16 92.26 5.16L92.26 5.16Q93.53 5.16 94.45 5.48Q95.38 5.81 96.17 6.31L96.17 6.31Q96.65 
 6.62 96.65 7.15L96.65 7.15Q96.65 7.51 96.37 7.81Q96.10 8.11 95.74 8.11L95.74 8.11Q95.47 8.11 95.21 7.97L95.21 7.97Q94.42 7.56 93.85 7.38Q93.29 7.20 92.45 7.20L92.45 
 7.20Q90.38 7.20 89.21 8.39Q88.03 9.58 88.03 11.52L88.03 11.52Q88.03 13.46 89.21 14.65Q90.38 15.84 92.45 15.84L92.45 15.84Q93.29 15.84 93.85 15.66Q94.42 15.48 95.21 
 15.07L95.21 15.07Q95.47 14.93 95.74 14.93L95.74 14.93Q96.10 14.93 96.37 15.23Q96.65 15.53 96.65 15.89L96.65 15.89Q96.65 16.42 96.17 16.73L96.17 16.73Q95.38 17.23 
 94.45 17.56Q93.53 17.88 92.26 17.88L92.26 17.88ZM103.61 17.88Q100.10 17.88 100.10 14.71L100.10 14.71L100.10 7.27L98.40 7.27Q98.21 7.27 98.08 7.14Q97.94 7.01 97.94
  6.82L97.94 6.82Q97.94 6.58 98.16 6.41L98.16 6.41L101.42 3.22Q101.64 3 101.83 3L101.83 3Q102.02 3 102.16 3.14Q102.29 3.29 102.29 3.48L102.29 3.48L102.29 5.40L105
  5.40Q105.41 5.40 105.67 5.66Q105.94 5.93 105.94 6.34L105.94 6.34Q105.94 6.72 105.67 7.00Q105.41 7.27 105 7.27L105 7.27L102.29 7.27L102.29 14.52Q102.29 15.46
   102.73 15.71Q103.18 15.96 103.85 15.96L103.85 15.96Q104.33 15.96 104.81 15.82L104.81 15.82Q104.90 15.79 105.01 15.77Q105.12 15.74 105.29 15.74L105.29 15.74Q105.62 
   15.74 105.89 16.00Q106.15 16.25 106.15 16.61L106.15 16.61Q106.15 17.16 105.60 17.45L105.60 17.45Q104.66 17.88 103.61 17.88L103.61 17.88ZM109.58 2.90Q109.08 2.90 
   108.72 2.54Q108.36 2.18 108.36 1.68L108.36 1.68L108.36 1.58Q108.36 1.08 108.72 0.72Q109.08 0.36 109.58 0.36L109.58 0.36L109.73 0.36Q110.23 0.36 110.59 0.72Q110.95
    1.08 110.95 1.58L110.95 1.58L110.95 1.68Q110.95 2.18 110.59 2.54Q110.23 2.90 109.73 2.90L109.73 2.90L109.58 2.90ZM109.63 17.76Q109.18 17.76 108.86 17.45Q108.55 
    17.14 108.55 16.68L108.55 16.68L108.55 6.38Q108.55 5.93 108.86 5.60Q109.18 5.28 109.63 5.28L109.63 5.28Q110.11 5.28 110.42 5.59Q110.74 5.90 110.74 6.38L110.74 
    6.38L110.74 16.68Q110.74 17.14 110.41 17.45Q110.09 17.76 109.63 17.76L109.63 17.76ZM119.93 17.88Q118.08 17.88 116.69 17.09Q115.30 16.30 114.54 14.84Q113.78 
    13.39 113.78 11.52L113.78 11.52Q113.78 9.65 114.54 8.20Q115.30 6.74 116.69 5.95Q118.08 5.16 119.93 5.16L119.93 5.16Q121.75 5.16 123.14 5.95Q124.54 6.74 125.30 
    8.20Q126.07 9.65 126.07 11.52L126.07 11.52Q126.07 13.39 125.30 14.84Q124.54 16.30 123.14 17.09Q121.75 17.88 119.93 17.88L119.93 17.88ZM119.93 15.89Q120.91 15.89
     121.81 15.43Q122.71 14.98 123.30 13.99Q123.89 13.01 123.89 11.50L123.89 11.50Q123.89 10.01 123.30 9.02Q122.71 8.04 121.81 7.60Q120.91 7.15 119.93 7.15L119.93 
     7.15Q118.92 7.15 118.02 7.60Q117.12 8.04 116.54 9.02Q115.97 10.01 115.97 11.50L115.97 11.50Q115.97 13.01 116.54 13.99Q117.12 14.98 118.02 15.43Q118.92 15.89
      119.93 15.89L119.93 15.89ZM130.20 17.76Q129.74 17.76 129.43 17.45Q129.12 17.14 129.12 16.68L129.12 16.68L129.12 6.38Q129.12 5.93 129.43 5.60Q129.74 5.28 
      130.20 5.28L130.20 5.28Q130.66 5.28 130.98 5.60Q131.30 5.93 131.30 6.38L131.30 6.38L131.30 7.37Q132.22 6.36 133.27 5.76Q134.33 5.16 135.77 5.16L135.77 5.16Q137.09
       5.16 138.06 5.78Q139.03 6.41 139.55 7.49Q140.06 8.57 140.06 9.86L140.06 9.86L140.06 16.68Q140.06 17.14 139.74 17.45Q139.42 17.76 138.96 17.76L138.96 17.76Q138.50
        17.76 138.19 17.45Q137.88 17.14 137.88 16.68L137.88 16.68L137.88 10.10Q137.88 7.18 135.24 7.18L135.24 7.18Q134.04 7.18 133.09 7.80Q132.14 8.42 131.30 9.48L131.30
         9.48L131.30 16.68Q131.30 17.14 130.98 17.45Q130.66 17.76 130.20 17.76L130.20 17.76ZM147.70 17.88Q145.30 17.88 143.33 16.80L143.33 16.80Q142.92 16.51 142.92
          16.01L142.92 16.01Q142.92 15.62 143.18 15.34Q143.45 15.05 143.86 15.05L143.86 15.05Q144.07 15.05 144.29 15.14L144.29 15.14Q145.06 15.48 145.82 15.67Q146.59 
          15.86 147.55 15.86L147.55 15.86Q150.22 15.86 150.22 14.16L150.22 14.16Q150.22 13.61 149.60 13.32Q148.99 13.03 147.60 12.67L147.60 12.67Q146.18 12.34 145.26
           11.98Q144.34 11.62 143.68 10.88Q143.02 10.15 143.02 8.95L143.02 8.95Q143.02 7.27 144.23 6.22Q145.44 5.16 147.70 5.16L147.70 5.16Q149.54 5.16 151.18 5.76L151.18 
           5.76Q151.51 5.86 151.69 6.12Q151.87 6.38 151.87 6.67L151.87 6.67Q151.87 7.06 151.60 7.34Q151.32 7.63 150.91 7.63L150.91 7.63Q150.79 7.63 150.60 7.58L150.60 
           7.58Q149.21 7.15 147.86 7.15L147.86 7.15Q146.57 7.15 145.84 7.62Q145.10 8.09 145.10 8.83L145.10 8.83Q145.10 9.55 145.78 9.89Q146.45 10.22 147.86 10.54L147.86 
           10.54Q149.28 10.90 150.17 11.24Q151.06 11.59 151.69 12.34Q152.33 13.08 152.33 14.33L152.33 14.33Q152.33 15.86 151.12 16.87Q149.90 17.88 147.70 17.88L147.70 
           17.88Z" transform="translate(51, 3.24)"></path>
</svg>